G04 EAGLE Gerber RS-274X export*
G75*
%MOMM*%
%FSLAX34Y34*%
%LPD*%
%INSoldermask Bottom*%
%IPPOS*%
%AMOC8*
5,1,8,0,0,1.08239X$1,22.5*%
G01*
%ADD10R,1.778200X1.778200*%
%ADD11C,1.727200*%
%ADD12C,0.911200*%
%ADD13C,1.203200*%
%ADD14R,2.303200X2.303200*%
%ADD15C,2.303200*%
%ADD16C,2.743200*%
%ADD17P,2.969212X8X22.500000*%
%ADD18C,2.753200*%
%ADD19R,1.711200X1.711200*%
%ADD20C,1.711200*%
%ADD21C,0.959600*%


D10*
X101600Y670200D03*
X127000Y670200D03*
X152400Y670200D03*
X177800Y670200D03*
X203200Y670200D03*
X228600Y670200D03*
X254000Y670200D03*
X279400Y670200D03*
X304800Y670200D03*
X330200Y670200D03*
X355600Y670200D03*
X381000Y670200D03*
X406400Y670200D03*
X431800Y670200D03*
X457200Y670200D03*
X482600Y670200D03*
X520700Y670300D03*
X546100Y670300D03*
X571500Y670300D03*
X596900Y670300D03*
X622300Y670300D03*
X647700Y670300D03*
X673100Y670300D03*
X698500Y670300D03*
X723900Y670300D03*
X749300Y670300D03*
X774700Y670300D03*
X800100Y670300D03*
X825500Y670300D03*
X850900Y670300D03*
X876300Y670300D03*
X901700Y670300D03*
D11*
X101720Y551100D02*
X86480Y551100D01*
X86480Y576500D02*
X101720Y576500D01*
X101720Y601900D02*
X86480Y601900D01*
X85380Y432100D02*
X100620Y432100D01*
X100620Y457500D02*
X85380Y457500D01*
X85380Y482900D02*
X100620Y482900D01*
X197480Y551100D02*
X212720Y551100D01*
X212720Y576500D02*
X197480Y576500D01*
X197480Y601900D02*
X212720Y601900D01*
X213620Y431100D02*
X198380Y431100D01*
X198380Y456500D02*
X213620Y456500D01*
X213620Y481900D02*
X198380Y481900D01*
X306480Y549400D02*
X321720Y549400D01*
X321720Y574800D02*
X306480Y574800D01*
X306480Y600200D02*
X321720Y600200D01*
X321620Y427400D02*
X306380Y427400D01*
X306380Y452800D02*
X321620Y452800D01*
X321620Y478200D02*
X306380Y478200D01*
X411480Y548400D02*
X426720Y548400D01*
X426720Y573800D02*
X411480Y573800D01*
X411480Y599200D02*
X426720Y599200D01*
X425620Y426400D02*
X410380Y426400D01*
X410380Y451800D02*
X425620Y451800D01*
X425620Y477200D02*
X410380Y477200D01*
X605480Y553700D02*
X620720Y553700D01*
X620720Y579100D02*
X605480Y579100D01*
X605480Y604500D02*
X620720Y604500D01*
X620620Y428700D02*
X605380Y428700D01*
X605380Y454100D02*
X620620Y454100D01*
X620620Y479500D02*
X605380Y479500D01*
X718480Y550700D02*
X733720Y550700D01*
X733720Y576100D02*
X718480Y576100D01*
X718480Y601500D02*
X733720Y601500D01*
X733620Y426700D02*
X718380Y426700D01*
X718380Y452100D02*
X733620Y452100D01*
X733620Y477500D02*
X718380Y477500D01*
X834480Y549700D02*
X849720Y549700D01*
X849720Y575100D02*
X834480Y575100D01*
X834480Y600500D02*
X849720Y600500D01*
X849620Y423700D02*
X834380Y423700D01*
X834380Y449100D02*
X849620Y449100D01*
X849620Y474500D02*
X834380Y474500D01*
X949480Y548700D02*
X964720Y548700D01*
X964720Y574100D02*
X949480Y574100D01*
X949480Y599500D02*
X964720Y599500D01*
X965620Y427700D02*
X950380Y427700D01*
X950380Y453100D02*
X965620Y453100D01*
X965620Y478500D02*
X950380Y478500D01*
D12*
X557975Y72950D03*
X539625Y72950D03*
X567150Y82125D03*
X548800Y82125D03*
X530450Y82125D03*
X557975Y91300D03*
X539625Y91300D03*
X567150Y100475D03*
X548800Y100475D03*
X530450Y100475D03*
X557975Y109650D03*
X539625Y109650D03*
D13*
X182800Y72100D03*
X226800Y72100D03*
D14*
X50500Y231500D03*
D15*
X50500Y281500D03*
D11*
X42820Y126800D02*
X27580Y126800D01*
X27580Y152200D02*
X42820Y152200D01*
X42820Y177600D02*
X27580Y177600D01*
X27580Y101400D02*
X42820Y101400D01*
X863880Y119700D02*
X879120Y119700D01*
X879120Y145100D02*
X863880Y145100D01*
X863880Y170500D02*
X879120Y170500D01*
X879120Y94300D02*
X863880Y94300D01*
X48020Y498600D02*
X32780Y498600D01*
X32780Y524000D02*
X48020Y524000D01*
X48020Y549400D02*
X32780Y549400D01*
X32780Y387600D02*
X48020Y387600D01*
X48020Y413000D02*
X32780Y413000D01*
X32780Y438400D02*
X48020Y438400D01*
X144780Y496600D02*
X160020Y496600D01*
X160020Y522000D02*
X144780Y522000D01*
X144780Y547400D02*
X160020Y547400D01*
X159020Y387600D02*
X143780Y387600D01*
X143780Y413000D02*
X159020Y413000D01*
X159020Y438400D02*
X143780Y438400D01*
X252780Y497600D02*
X268020Y497600D01*
X268020Y523000D02*
X252780Y523000D01*
X252780Y548400D02*
X268020Y548400D01*
X268020Y388600D02*
X252780Y388600D01*
X252780Y414000D02*
X268020Y414000D01*
X268020Y439400D02*
X252780Y439400D01*
X357780Y495600D02*
X373020Y495600D01*
X373020Y521000D02*
X357780Y521000D01*
X357780Y546400D02*
X373020Y546400D01*
X373020Y386600D02*
X357780Y386600D01*
X357780Y412000D02*
X373020Y412000D01*
X373020Y437400D02*
X357780Y437400D01*
X560780Y481600D02*
X576020Y481600D01*
X576020Y507000D02*
X560780Y507000D01*
X560780Y532400D02*
X576020Y532400D01*
X576020Y372600D02*
X560780Y372600D01*
X560780Y398000D02*
X576020Y398000D01*
X576020Y423400D02*
X560780Y423400D01*
X660780Y495900D02*
X676020Y495900D01*
X676020Y521300D02*
X660780Y521300D01*
X660780Y546700D02*
X676020Y546700D01*
X676020Y386900D02*
X660780Y386900D01*
X660780Y412300D02*
X676020Y412300D01*
X676020Y437700D02*
X660780Y437700D01*
X776780Y495900D02*
X792020Y495900D01*
X792020Y521300D02*
X776780Y521300D01*
X776780Y546700D02*
X792020Y546700D01*
X792020Y387900D02*
X776780Y387900D01*
X776780Y413300D02*
X792020Y413300D01*
X792020Y438700D02*
X776780Y438700D01*
X891880Y511500D02*
X907120Y511500D01*
X907120Y536900D02*
X891880Y536900D01*
X891880Y562300D02*
X907120Y562300D01*
X907620Y402100D02*
X892380Y402100D01*
X892380Y427500D02*
X907620Y427500D01*
X907620Y452900D02*
X892380Y452900D01*
D16*
X471900Y585700D03*
D17*
X522700Y585700D03*
D16*
X467000Y481700D03*
D17*
X517800Y481700D03*
D16*
X465000Y378700D03*
D17*
X515800Y378700D03*
D11*
X736100Y35620D02*
X736100Y20380D01*
X710700Y20380D02*
X710700Y35620D01*
X685300Y35620D02*
X685300Y20380D01*
X659900Y20380D02*
X659900Y35620D01*
X765800Y35620D02*
X765800Y20380D01*
X791200Y20380D02*
X791200Y35620D01*
X816600Y35620D02*
X816600Y20380D01*
X842000Y20380D02*
X842000Y35620D01*
X867400Y35620D02*
X867400Y20380D01*
X892800Y20380D02*
X892800Y35620D01*
X918200Y35620D02*
X918200Y20380D01*
D18*
X61500Y337000D03*
X106500Y337000D03*
X24500Y337000D03*
X143500Y337000D03*
D14*
X957900Y103900D03*
D15*
X957900Y153900D03*
D11*
X962780Y261200D02*
X978020Y261200D01*
X978020Y235800D02*
X962780Y235800D01*
X962780Y210400D02*
X978020Y210400D01*
D19*
X901100Y316600D03*
D20*
X926500Y316600D03*
X951900Y316600D03*
X977300Y316600D03*
D21*
X637000Y499300D03*
X809000Y462300D03*
X954200Y247500D03*
X229000Y103000D03*
X240000Y203000D03*
X437000Y16000D03*
X643000Y16000D03*
X338000Y92050D03*
X101000Y210000D03*
X595000Y220000D03*
X596000Y175000D03*
X411056Y97884D03*
X642000Y109900D03*
X306000Y374000D03*
X605000Y373300D03*
X709000Y363300D03*
X834818Y497300D03*
X937000Y511300D03*
X940000Y381300D03*
X703000Y507300D03*
X399300Y383100D03*
X410000Y494000D03*
X307000Y496000D03*
X187000Y388000D03*
X185000Y506000D03*
X87000Y379000D03*
X87562Y496438D03*
X592000Y507300D03*
X329200Y313400D03*
X712457Y383494D03*
X444000Y214000D03*
X665000Y189000D03*
X778900Y84300D03*
X683800Y167400D03*
X585000Y162000D03*
X586000Y139000D03*
X657800Y160900D03*
X140000Y123000D03*
X655500Y304800D03*
X471426Y291706D03*
X751000Y167700D03*
X809206Y115600D03*
X871900Y279394D03*
X840300Y315300D03*
X826068Y374728D03*
X854300Y207800D03*
X385400Y15300D03*
X314800Y341200D03*
X366400Y149900D03*
X409200Y129500D03*
X615100Y347800D03*
X617300Y313700D03*
X423000Y163000D03*
X419490Y245490D03*
X117650Y295250D03*
X437431Y245027D03*
X137000Y299900D03*
X444216Y251095D03*
X146200Y299700D03*
X451000Y257163D03*
X164250Y299750D03*
X360000Y272932D03*
X419900Y282662D03*
X736736Y298000D03*
X611000Y498300D03*
X718600Y361594D03*
X733200Y317817D03*
X745824Y298000D03*
X500000Y346068D03*
X532960Y343360D03*
X604500Y310000D03*
X764000Y297000D03*
X749185Y369485D03*
X742288Y317928D03*
X820000Y400434D03*
X819600Y361461D03*
X803500Y311054D03*
X804400Y298900D03*
X754912Y297000D03*
X772800Y314717D03*
X546838Y367746D03*
X675000Y366300D03*
X416884Y90000D03*
X434000Y43000D03*
X438000Y79000D03*
X350912Y263722D03*
X382000Y204000D03*
X642000Y215000D03*
X657088Y110925D03*
X700000Y54842D03*
X684002Y76994D03*
X374912Y314000D03*
X621000Y202000D03*
X360000Y263844D03*
X384000Y314000D03*
X397072Y203072D03*
X652594Y122000D03*
X699058Y79954D03*
X414600Y24900D03*
X470200Y41800D03*
X709088Y54642D03*
X488000Y228000D03*
X470000Y169000D03*
X417912Y219740D03*
X407400Y315100D03*
X380797Y232854D03*
X496000Y252000D03*
X524000Y253000D03*
X550118Y252000D03*
X579000Y252000D03*
X607000Y252000D03*
X634000Y251000D03*
X369624Y204624D03*
X758000Y69000D03*
X358300Y334100D03*
X690007Y54642D03*
X483000Y111000D03*
X333000Y184000D03*
X470000Y55000D03*
X264000Y138000D03*
X472000Y71000D03*
X280000Y167000D03*
X432000Y177000D03*
X360000Y141000D03*
X666000Y204000D03*
X489210Y206706D03*
X138000Y105000D03*
X264106Y99000D03*
X419864Y179855D03*
X482000Y175000D03*
X792173Y61146D03*
X472000Y100912D03*
X739870Y61662D03*
X470000Y154000D03*
X471000Y143000D03*
X470000Y110000D03*
X711100Y269700D03*
X685600Y285402D03*
X404000Y341082D03*
X879400Y316500D03*
X704400Y237692D03*
X699798Y138256D03*
X639800Y125500D03*
M02*
