G04 EAGLE Gerber RS-274X export*
G75*
%MOMM*%
%FSLAX34Y34*%
%LPD*%
%INSoldermask Top*%
%IPPOS*%
%AMOC8*
5,1,8,0,0,1.08239X$1,22.5*%
G01*
%ADD10R,1.778200X1.778200*%
%ADD11C,1.727200*%
%ADD12R,1.203200X1.303200*%
%ADD13R,1.625600X1.346200*%
%ADD14R,0.653200X1.103200*%
%ADD15R,1.803200X2.006200*%
%ADD16R,2.203200X1.103200*%
%ADD17R,1.103200X2.203200*%
%ADD18R,1.533200X1.533200*%
%ADD19C,0.911200*%
%ADD20R,1.303200X1.203200*%
%ADD21R,0.803200X1.403200*%
%ADD22R,1.103200X1.003200*%
%ADD23R,2.203200X2.603200*%
%ADD24R,0.703200X2.511200*%
%ADD25C,1.203200*%
%ADD26C,0.339959*%
%ADD27C,0.393431*%
%ADD28R,2.703200X2.753200*%
%ADD29R,1.603200X1.703200*%
%ADD30R,4.703200X1.953200*%
%ADD31R,2.853200X1.953200*%
%ADD32R,2.303200X2.303200*%
%ADD33C,2.303200*%
%ADD34R,2.006200X1.803200*%
%ADD35C,2.743200*%
%ADD36P,2.969212X8X22.500000*%
%ADD37R,1.003200X1.003200*%
%ADD38R,2.403200X0.803200*%
%ADD39C,2.753200*%
%ADD40R,1.953200X2.853200*%
%ADD41R,0.558800X1.676400*%
%ADD42R,1.711200X1.711200*%
%ADD43C,1.711200*%
%ADD44R,1.603200X1.203200*%
%ADD45C,0.959600*%


D10*
X101600Y670200D03*
X127000Y670200D03*
X152400Y670200D03*
X177800Y670200D03*
X203200Y670200D03*
X228600Y670200D03*
X254000Y670200D03*
X279400Y670200D03*
X304800Y670200D03*
X330200Y670200D03*
X355600Y670200D03*
X381000Y670200D03*
X406400Y670200D03*
X431800Y670200D03*
X457200Y670200D03*
X482600Y670200D03*
X520700Y670300D03*
X546100Y670300D03*
X571500Y670300D03*
X596900Y670300D03*
X622300Y670300D03*
X647700Y670300D03*
X673100Y670300D03*
X698500Y670300D03*
X723900Y670300D03*
X749300Y670300D03*
X774700Y670300D03*
X800100Y670300D03*
X825500Y670300D03*
X850900Y670300D03*
X876300Y670300D03*
X901700Y670300D03*
D11*
X101720Y551100D02*
X86480Y551100D01*
X86480Y576500D02*
X101720Y576500D01*
X101720Y601900D02*
X86480Y601900D01*
X85380Y432100D02*
X100620Y432100D01*
X100620Y457500D02*
X85380Y457500D01*
X85380Y482900D02*
X100620Y482900D01*
X197480Y551100D02*
X212720Y551100D01*
X212720Y576500D02*
X197480Y576500D01*
X197480Y601900D02*
X212720Y601900D01*
X213620Y431100D02*
X198380Y431100D01*
X198380Y456500D02*
X213620Y456500D01*
X213620Y481900D02*
X198380Y481900D01*
X306480Y549400D02*
X321720Y549400D01*
X321720Y574800D02*
X306480Y574800D01*
X306480Y600200D02*
X321720Y600200D01*
X321620Y427400D02*
X306380Y427400D01*
X306380Y452800D02*
X321620Y452800D01*
X321620Y478200D02*
X306380Y478200D01*
X411480Y548400D02*
X426720Y548400D01*
X426720Y573800D02*
X411480Y573800D01*
X411480Y599200D02*
X426720Y599200D01*
X425620Y426400D02*
X410380Y426400D01*
X410380Y451800D02*
X425620Y451800D01*
X425620Y477200D02*
X410380Y477200D01*
X605480Y553700D02*
X620720Y553700D01*
X620720Y579100D02*
X605480Y579100D01*
X605480Y604500D02*
X620720Y604500D01*
X620620Y428700D02*
X605380Y428700D01*
X605380Y454100D02*
X620620Y454100D01*
X620620Y479500D02*
X605380Y479500D01*
X718480Y550700D02*
X733720Y550700D01*
X733720Y576100D02*
X718480Y576100D01*
X718480Y601500D02*
X733720Y601500D01*
X733620Y426700D02*
X718380Y426700D01*
X718380Y452100D02*
X733620Y452100D01*
X733620Y477500D02*
X718380Y477500D01*
X834480Y549700D02*
X849720Y549700D01*
X849720Y575100D02*
X834480Y575100D01*
X834480Y600500D02*
X849720Y600500D01*
X849620Y423700D02*
X834380Y423700D01*
X834380Y449100D02*
X849620Y449100D01*
X849620Y474500D02*
X834380Y474500D01*
X949480Y548700D02*
X964720Y548700D01*
X964720Y574100D02*
X949480Y574100D01*
X949480Y599500D02*
X964720Y599500D01*
X965620Y427700D02*
X950380Y427700D01*
X950380Y453100D02*
X965620Y453100D01*
X965620Y478500D02*
X950380Y478500D01*
D12*
X87700Y508200D03*
X104700Y508200D03*
X87700Y392100D03*
X104700Y392100D03*
X199700Y508200D03*
X216700Y508200D03*
X198700Y388100D03*
X215700Y388100D03*
X307400Y509200D03*
X324400Y509200D03*
X306400Y386100D03*
X323400Y386100D03*
X410400Y509200D03*
X427400Y509200D03*
X410400Y383100D03*
X427400Y383100D03*
X603400Y510500D03*
X620400Y510500D03*
X605400Y386400D03*
X622400Y386400D03*
X715400Y506500D03*
X732400Y506500D03*
X718400Y372400D03*
X735400Y372400D03*
X836400Y508500D03*
X853400Y508500D03*
X834400Y363400D03*
X851400Y363400D03*
X949400Y508500D03*
X966400Y508500D03*
X952400Y381400D03*
X969400Y381400D03*
D13*
X482900Y265704D03*
X482900Y252496D03*
X510300Y265704D03*
X510300Y252496D03*
X537700Y265704D03*
X537700Y252496D03*
X565100Y265704D03*
X565100Y252496D03*
X592500Y265704D03*
X592500Y252496D03*
X619900Y265704D03*
X619900Y252496D03*
D14*
X584000Y230500D03*
X575000Y230500D03*
X567000Y230500D03*
X558000Y230500D03*
X558000Y213500D03*
X567000Y213500D03*
X575000Y213500D03*
X584000Y213500D03*
X606200Y213500D03*
X615200Y213500D03*
X623200Y213500D03*
X632200Y213500D03*
X632200Y230500D03*
X623200Y230500D03*
X615200Y230500D03*
X606200Y230500D03*
D15*
X533020Y223600D03*
X504580Y223600D03*
D16*
X623800Y16300D03*
X623800Y29000D03*
X623800Y41700D03*
X623800Y54400D03*
X623800Y67100D03*
X623800Y79800D03*
X623800Y92500D03*
X623800Y105200D03*
X623800Y117900D03*
X623800Y130600D03*
X623800Y143300D03*
X623800Y156000D03*
X623800Y168700D03*
X623800Y181400D03*
D17*
X595950Y191400D03*
X583250Y191400D03*
X570550Y191400D03*
X557850Y191400D03*
X545150Y191400D03*
X532450Y191400D03*
X519750Y191400D03*
X507050Y191400D03*
X494350Y191400D03*
X481650Y191400D03*
D16*
X453800Y181400D03*
X453800Y168700D03*
X453800Y156000D03*
X453800Y143300D03*
X453800Y130600D03*
X453800Y117900D03*
X453800Y105200D03*
X453800Y92500D03*
X453800Y79800D03*
X453800Y67100D03*
X453800Y54400D03*
X453800Y41700D03*
X453800Y29000D03*
X453800Y16300D03*
D18*
X567150Y72950D03*
X548800Y72950D03*
X530450Y72950D03*
X567150Y91300D03*
X548800Y91300D03*
X530450Y91300D03*
X567150Y109650D03*
X548800Y109650D03*
X530450Y109650D03*
D19*
X557975Y72950D03*
X539625Y72950D03*
X567150Y82125D03*
X548800Y82125D03*
X530450Y82125D03*
X557975Y91300D03*
X539625Y91300D03*
X567150Y100475D03*
X548800Y100475D03*
X530450Y100475D03*
X557975Y109650D03*
X539625Y109650D03*
D20*
X391370Y167460D03*
X391370Y184460D03*
D12*
X398000Y151800D03*
X398000Y134800D03*
D21*
X240650Y190800D03*
X227950Y190800D03*
X215250Y190800D03*
X202550Y190800D03*
X189850Y190800D03*
X177150Y190800D03*
X164450Y190800D03*
X151750Y190800D03*
X151750Y134800D03*
X164450Y134800D03*
X177150Y134800D03*
X189850Y134800D03*
X202550Y134800D03*
X215250Y134800D03*
X227950Y134800D03*
X240650Y134800D03*
D22*
X301700Y149800D03*
X301700Y130800D03*
X322700Y140300D03*
X301900Y196800D03*
X301900Y177800D03*
X322900Y187300D03*
D20*
X286400Y147800D03*
X286400Y130800D03*
X285700Y179200D03*
X285700Y196200D03*
D23*
X160800Y97100D03*
D24*
X188800Y102740D03*
X196800Y102740D03*
X204800Y102740D03*
X212800Y102740D03*
X220800Y102740D03*
D23*
X160800Y42100D03*
X248800Y97100D03*
X248800Y42100D03*
D25*
X182800Y72100D03*
X226800Y72100D03*
D26*
X317334Y105116D02*
X325266Y105116D01*
X325266Y93384D01*
X317334Y93384D01*
X317334Y105116D01*
X317334Y96614D02*
X325266Y96614D01*
X325266Y99844D02*
X317334Y99844D01*
X317334Y103074D02*
X325266Y103074D01*
X302366Y105116D02*
X294434Y105116D01*
X302366Y105116D02*
X302366Y93384D01*
X294434Y93384D01*
X294434Y105116D01*
X294434Y96614D02*
X302366Y96614D01*
X302366Y99844D02*
X294434Y99844D01*
X294434Y103074D02*
X302366Y103074D01*
X279466Y105116D02*
X271534Y105116D01*
X279466Y105116D02*
X279466Y93384D01*
X271534Y93384D01*
X271534Y105116D01*
X271534Y96614D02*
X279466Y96614D01*
X279466Y99844D02*
X271534Y99844D01*
X271534Y103074D02*
X279466Y103074D01*
D27*
X283151Y37949D02*
X313649Y37949D01*
X313649Y26751D01*
X283151Y26751D01*
X283151Y37949D01*
X283151Y30488D02*
X313649Y30488D01*
X313649Y34225D02*
X283151Y34225D01*
D28*
X90600Y136550D03*
X90600Y187050D03*
X358400Y41550D03*
X358400Y92050D03*
D29*
X355800Y120200D03*
X355800Y198200D03*
D30*
X781400Y154050D03*
X781400Y121550D03*
D31*
X782300Y184600D03*
X739300Y184600D03*
D28*
X827800Y66550D03*
X827800Y117050D03*
X827910Y194580D03*
X827910Y144080D03*
D32*
X50500Y231500D03*
D33*
X50500Y281500D03*
D11*
X42820Y126800D02*
X27580Y126800D01*
X27580Y152200D02*
X42820Y152200D01*
X42820Y177600D02*
X27580Y177600D01*
X27580Y101400D02*
X42820Y101400D01*
X863880Y119700D02*
X879120Y119700D01*
X879120Y145100D02*
X863880Y145100D01*
X863880Y170500D02*
X879120Y170500D01*
X879120Y94300D02*
X863880Y94300D01*
D13*
X647300Y265204D03*
X647300Y251996D03*
X673400Y265304D03*
X673400Y252096D03*
D14*
X128000Y272500D03*
X137000Y272500D03*
X145000Y272500D03*
X154000Y272500D03*
X154000Y289500D03*
X145000Y289500D03*
X137000Y289500D03*
X128000Y289500D03*
X247000Y274500D03*
X256000Y274500D03*
X264000Y274500D03*
X273000Y274500D03*
X273000Y291500D03*
X264000Y291500D03*
X256000Y291500D03*
X247000Y291500D03*
X738000Y269500D03*
X747000Y269500D03*
X755000Y269500D03*
X764000Y269500D03*
X764000Y286500D03*
X755000Y286500D03*
X747000Y286500D03*
X738000Y286500D03*
X813600Y281200D03*
X822600Y281200D03*
X830600Y281200D03*
X839600Y281200D03*
X839600Y298200D03*
X830600Y298200D03*
X822600Y298200D03*
X813600Y298200D03*
D34*
X101000Y252220D03*
X101000Y223780D03*
X128000Y252220D03*
X128000Y223780D03*
X156000Y252220D03*
X156000Y223780D03*
X184000Y252220D03*
X184000Y223780D03*
X212000Y252220D03*
X212000Y223780D03*
X241000Y252220D03*
X241000Y223780D03*
X271000Y252220D03*
X271000Y223780D03*
X302000Y252220D03*
X302000Y223780D03*
X725000Y252620D03*
X725000Y224180D03*
X747900Y252620D03*
X747900Y224180D03*
X771600Y252620D03*
X771600Y224180D03*
X795600Y252620D03*
X795600Y224180D03*
X823600Y252620D03*
X823600Y224180D03*
X851600Y252620D03*
X851600Y224180D03*
X879600Y252620D03*
X879600Y224180D03*
X905000Y252220D03*
X905000Y223780D03*
D12*
X426000Y134500D03*
X426000Y151500D03*
X426000Y120500D03*
X426000Y103500D03*
X648600Y66500D03*
X648600Y49500D03*
X647000Y81500D03*
X647000Y98500D03*
D11*
X48020Y498600D02*
X32780Y498600D01*
X32780Y524000D02*
X48020Y524000D01*
X48020Y549400D02*
X32780Y549400D01*
X32780Y387600D02*
X48020Y387600D01*
X48020Y413000D02*
X32780Y413000D01*
X32780Y438400D02*
X48020Y438400D01*
X144780Y496600D02*
X160020Y496600D01*
X160020Y522000D02*
X144780Y522000D01*
X144780Y547400D02*
X160020Y547400D01*
X159020Y387600D02*
X143780Y387600D01*
X143780Y413000D02*
X159020Y413000D01*
X159020Y438400D02*
X143780Y438400D01*
X252780Y497600D02*
X268020Y497600D01*
X268020Y523000D02*
X252780Y523000D01*
X252780Y548400D02*
X268020Y548400D01*
X268020Y388600D02*
X252780Y388600D01*
X252780Y414000D02*
X268020Y414000D01*
X268020Y439400D02*
X252780Y439400D01*
X357780Y495600D02*
X373020Y495600D01*
X373020Y521000D02*
X357780Y521000D01*
X357780Y546400D02*
X373020Y546400D01*
X373020Y386600D02*
X357780Y386600D01*
X357780Y412000D02*
X373020Y412000D01*
X373020Y437400D02*
X357780Y437400D01*
X560780Y481600D02*
X576020Y481600D01*
X576020Y507000D02*
X560780Y507000D01*
X560780Y532400D02*
X576020Y532400D01*
X576020Y372600D02*
X560780Y372600D01*
X560780Y398000D02*
X576020Y398000D01*
X576020Y423400D02*
X560780Y423400D01*
X660780Y495900D02*
X676020Y495900D01*
X676020Y521300D02*
X660780Y521300D01*
X660780Y546700D02*
X676020Y546700D01*
X676020Y386900D02*
X660780Y386900D01*
X660780Y412300D02*
X676020Y412300D01*
X676020Y437700D02*
X660780Y437700D01*
X776780Y495900D02*
X792020Y495900D01*
X792020Y521300D02*
X776780Y521300D01*
X776780Y546700D02*
X792020Y546700D01*
X792020Y387900D02*
X776780Y387900D01*
X776780Y413300D02*
X792020Y413300D01*
X792020Y438700D02*
X776780Y438700D01*
X891880Y511500D02*
X907120Y511500D01*
X907120Y536900D02*
X891880Y536900D01*
X891880Y562300D02*
X907120Y562300D01*
X907620Y402100D02*
X892380Y402100D01*
X892380Y427500D02*
X907620Y427500D01*
X907620Y452900D02*
X892380Y452900D01*
D12*
X104500Y529000D03*
X87500Y529000D03*
X104500Y413000D03*
X87500Y413000D03*
X216500Y529000D03*
X199500Y529000D03*
X215500Y409000D03*
X198500Y409000D03*
X324500Y530000D03*
X307500Y530000D03*
X323500Y407000D03*
X306500Y407000D03*
X427500Y530000D03*
X410500Y530000D03*
X427500Y404000D03*
X410500Y404000D03*
X620500Y531300D03*
X603500Y531300D03*
X622500Y407300D03*
X605500Y407300D03*
X732500Y527300D03*
X715500Y527300D03*
X735500Y394300D03*
X718500Y394300D03*
X853500Y529300D03*
X836500Y529300D03*
X851500Y384300D03*
X834500Y384300D03*
X966500Y529300D03*
X949500Y529300D03*
X969500Y402300D03*
X952500Y402300D03*
D20*
X356900Y323300D03*
X339900Y323300D03*
X356900Y302800D03*
X339900Y302800D03*
X331000Y153500D03*
X331000Y170500D03*
D35*
X471900Y585700D03*
D36*
X522700Y585700D03*
D35*
X467000Y481700D03*
D36*
X517800Y481700D03*
D35*
X465000Y378700D03*
D36*
X515800Y378700D03*
D12*
X456500Y215000D03*
X473500Y215000D03*
X682300Y204100D03*
X682300Y187100D03*
D29*
X657700Y144400D03*
X657700Y222400D03*
D20*
X265000Y196500D03*
X265000Y179500D03*
X265000Y165500D03*
X265000Y148500D03*
D11*
X736100Y35620D02*
X736100Y20380D01*
X710700Y20380D02*
X710700Y35620D01*
X685300Y35620D02*
X685300Y20380D01*
X659900Y20380D02*
X659900Y35620D01*
X765800Y35620D02*
X765800Y20380D01*
X791200Y20380D02*
X791200Y35620D01*
X816600Y35620D02*
X816600Y20380D01*
X842000Y20380D02*
X842000Y35620D01*
X867400Y35620D02*
X867400Y20380D01*
X892800Y20380D02*
X892800Y35620D01*
X918200Y35620D02*
X918200Y20380D01*
D12*
X377000Y151500D03*
X377000Y134500D03*
D37*
X410000Y192500D03*
X410000Y207500D03*
X666700Y125200D03*
X666700Y110200D03*
D20*
X668500Y98400D03*
X668500Y81400D03*
X427000Y208500D03*
X427000Y191500D03*
D38*
X735600Y132950D03*
X683600Y132950D03*
X735600Y120250D03*
X735600Y145650D03*
X735600Y158350D03*
X683600Y120250D03*
X683600Y145650D03*
X683600Y158350D03*
D12*
X794470Y102120D03*
X794470Y85120D03*
D20*
X730900Y104800D03*
X730900Y87800D03*
X751900Y87800D03*
X751900Y104800D03*
X709900Y104800D03*
X709900Y87800D03*
D12*
X688900Y87800D03*
X688900Y104800D03*
D39*
X61500Y337000D03*
X106500Y337000D03*
X24500Y337000D03*
X143500Y337000D03*
D40*
X396000Y92500D03*
X396000Y49500D03*
D12*
X131000Y152500D03*
X131000Y135500D03*
X131000Y167500D03*
X131000Y184500D03*
X389500Y219000D03*
X372500Y219000D03*
D41*
X372836Y269990D03*
X379186Y269990D03*
X385790Y269990D03*
X392140Y269990D03*
X398744Y269990D03*
X405348Y269990D03*
X411698Y269990D03*
X418302Y269990D03*
X424652Y269990D03*
X431256Y269990D03*
X437860Y269990D03*
X444210Y269990D03*
X450814Y269990D03*
X457164Y269990D03*
X457164Y328410D03*
X450814Y328410D03*
X444210Y328410D03*
X437860Y328410D03*
X431256Y328410D03*
X424652Y328410D03*
X418302Y328410D03*
X411698Y328410D03*
X405348Y328410D03*
X398744Y328410D03*
X392140Y328410D03*
X385790Y328410D03*
X379186Y328410D03*
X372836Y328410D03*
D12*
X655500Y292300D03*
X672500Y292300D03*
D13*
X698400Y265404D03*
X698400Y252196D03*
D32*
X957900Y103900D03*
D33*
X957900Y153900D03*
D11*
X962780Y261200D02*
X978020Y261200D01*
X978020Y235800D02*
X962780Y235800D01*
X962780Y210400D02*
X978020Y210400D01*
D42*
X901100Y316600D03*
D43*
X926500Y316600D03*
X951900Y316600D03*
X977300Y316600D03*
D20*
X984200Y294000D03*
X967200Y294000D03*
D12*
X953400Y294200D03*
X936400Y294200D03*
D20*
X941100Y260100D03*
X941100Y277100D03*
D37*
X940380Y232730D03*
X940380Y247730D03*
D44*
X879400Y289700D03*
X857400Y280200D03*
X857400Y299200D03*
D12*
X851300Y315900D03*
X868300Y315900D03*
D20*
X895100Y285200D03*
X912100Y285200D03*
D37*
X395000Y15000D03*
X410000Y15000D03*
D20*
X425900Y15700D03*
X425900Y32700D03*
D45*
X637000Y499300D03*
X809000Y462300D03*
X954200Y247500D03*
X229000Y103000D03*
X240000Y203000D03*
X437000Y16000D03*
X643000Y16000D03*
X338000Y92050D03*
X101000Y210000D03*
X595000Y220000D03*
X596000Y175000D03*
X411056Y97884D03*
X642000Y109900D03*
X306000Y374000D03*
X605000Y373300D03*
X709000Y363300D03*
X834818Y497300D03*
X937000Y511300D03*
X940000Y381300D03*
X703000Y507300D03*
X399300Y383100D03*
X410000Y494000D03*
X307000Y496000D03*
X187000Y388000D03*
X185000Y506000D03*
X87000Y379000D03*
X87562Y496438D03*
X592000Y507300D03*
X329200Y313400D03*
X712457Y383494D03*
X444000Y214000D03*
X665000Y189000D03*
X778900Y84300D03*
X683800Y167400D03*
X585000Y162000D03*
X586000Y139000D03*
X657800Y160900D03*
X140000Y123000D03*
X655500Y304800D03*
X471426Y291706D03*
X751000Y167700D03*
X809206Y115600D03*
X871900Y279394D03*
X840300Y315300D03*
X826068Y374728D03*
X854300Y207800D03*
X385400Y15300D03*
X314800Y341200D03*
X366400Y149900D03*
X409200Y129500D03*
X615100Y347800D03*
X617300Y313700D03*
X423000Y163000D03*
X419490Y245490D03*
X117650Y295250D03*
X437431Y245027D03*
X137000Y299900D03*
X444216Y251095D03*
X146200Y299700D03*
X451000Y257163D03*
X164250Y299750D03*
X360000Y272932D03*
X419900Y282662D03*
X736736Y298000D03*
X611000Y498300D03*
X718600Y361594D03*
X733200Y317817D03*
X745824Y298000D03*
X500000Y346068D03*
X532960Y343360D03*
X604500Y310000D03*
X764000Y297000D03*
X749185Y369485D03*
X742288Y317928D03*
X820000Y400434D03*
X819600Y361461D03*
X803500Y311054D03*
X804400Y298900D03*
X754912Y297000D03*
X772800Y314717D03*
X546838Y367746D03*
X675000Y366300D03*
X416884Y90000D03*
X434000Y43000D03*
X438000Y79000D03*
X350912Y263722D03*
X382000Y204000D03*
X642000Y215000D03*
X657088Y110925D03*
X700000Y54842D03*
X684002Y76994D03*
X374912Y314000D03*
X621000Y202000D03*
X360000Y263844D03*
X384000Y314000D03*
X397072Y203072D03*
X652594Y122000D03*
X699058Y79954D03*
X414600Y24900D03*
X470200Y41800D03*
X709088Y54642D03*
X488000Y228000D03*
X470000Y169000D03*
X417912Y219740D03*
X407400Y315100D03*
X380797Y232854D03*
X496000Y252000D03*
X524000Y253000D03*
X550118Y252000D03*
X579000Y252000D03*
X607000Y252000D03*
X634000Y251000D03*
X369624Y204624D03*
X758000Y69000D03*
X358300Y334100D03*
X690007Y54642D03*
X483000Y111000D03*
X333000Y184000D03*
X470000Y55000D03*
X264000Y138000D03*
X472000Y71000D03*
X280000Y167000D03*
X432000Y177000D03*
X360000Y141000D03*
X666000Y204000D03*
X489210Y206706D03*
X138000Y105000D03*
X264106Y99000D03*
X419864Y179855D03*
X482000Y175000D03*
X792173Y61146D03*
X472000Y100912D03*
X739870Y61662D03*
X470000Y154000D03*
X471000Y143000D03*
X470000Y110000D03*
X711100Y269700D03*
X685600Y285402D03*
X404000Y341082D03*
X879400Y316500D03*
X704400Y237692D03*
X699798Y138256D03*
X639800Y125500D03*
M02*
