G04 EAGLE Gerber RS-274X export*
G75*
%MOMM*%
%FSLAX34Y34*%
%LPD*%
%INSolderpaste Top*%
%IPPOS*%
%AMOC8*
5,1,8,0,0,1.08239X$1,22.5*%
G01*
%ADD10R,1.000000X1.100000*%
%ADD11R,0.450000X0.900000*%
%ADD12R,1.600000X1.803000*%
%ADD13R,2.000000X0.900000*%
%ADD14R,0.900000X2.000000*%
%ADD15R,1.330000X1.330000*%
%ADD16R,1.100000X1.000000*%
%ADD17R,0.600000X1.200000*%
%ADD18R,0.900000X0.800000*%
%ADD19R,2.000000X2.400000*%
%ADD20R,0.500000X2.308000*%
%ADD21C,0.139500*%
%ADD22C,0.196500*%
%ADD23R,2.500000X2.550000*%
%ADD24R,1.400000X1.500000*%
%ADD25R,4.500000X1.750000*%
%ADD26R,2.650000X1.750000*%
%ADD27R,1.803000X1.600000*%
%ADD28R,0.800000X0.800000*%
%ADD29R,2.200000X0.600000*%
%ADD30R,1.750000X2.650000*%
%ADD31R,0.355600X1.473200*%
%ADD32R,1.400000X1.000000*%
%ADD33R,1.400000X2.200000*%
%ADD34R,0.508000X1.219200*%


D10*
X87700Y508200D03*
X104700Y508200D03*
X87700Y392100D03*
X104700Y392100D03*
X199700Y508200D03*
X216700Y508200D03*
X198700Y388100D03*
X215700Y388100D03*
X307400Y509200D03*
X324400Y509200D03*
X306400Y386100D03*
X323400Y386100D03*
X410400Y509200D03*
X427400Y509200D03*
X410400Y383100D03*
X427400Y383100D03*
X603400Y510500D03*
X620400Y510500D03*
X605400Y386400D03*
X622400Y386400D03*
X715400Y506500D03*
X732400Y506500D03*
X718400Y372400D03*
X735400Y372400D03*
X836400Y508500D03*
X853400Y508500D03*
X834400Y363400D03*
X851400Y363400D03*
X949400Y508500D03*
X966400Y508500D03*
X952400Y381400D03*
X969400Y381400D03*
D11*
X584000Y230500D03*
X575000Y230500D03*
X567000Y230500D03*
X558000Y230500D03*
X558000Y213500D03*
X567000Y213500D03*
X575000Y213500D03*
X584000Y213500D03*
X606200Y213500D03*
X615200Y213500D03*
X623200Y213500D03*
X632200Y213500D03*
X632200Y230500D03*
X623200Y230500D03*
X615200Y230500D03*
X606200Y230500D03*
D12*
X533020Y223600D03*
X504580Y223600D03*
D13*
X623800Y16300D03*
X623800Y29000D03*
X623800Y41700D03*
X623800Y54400D03*
X623800Y67100D03*
X623800Y79800D03*
X623800Y92500D03*
X623800Y105200D03*
X623800Y117900D03*
X623800Y130600D03*
X623800Y143300D03*
X623800Y156000D03*
X623800Y168700D03*
X623800Y181400D03*
D14*
X595950Y191400D03*
X583250Y191400D03*
X570550Y191400D03*
X557850Y191400D03*
X545150Y191400D03*
X532450Y191400D03*
X519750Y191400D03*
X507050Y191400D03*
X494350Y191400D03*
X481650Y191400D03*
D13*
X453800Y181400D03*
X453800Y168700D03*
X453800Y156000D03*
X453800Y143300D03*
X453800Y130600D03*
X453800Y117900D03*
X453800Y105200D03*
X453800Y92500D03*
X453800Y79800D03*
X453800Y67100D03*
X453800Y54400D03*
X453800Y41700D03*
X453800Y29000D03*
X453800Y16300D03*
D15*
X567150Y72950D03*
X548800Y72950D03*
X530450Y72950D03*
X567150Y91300D03*
X548800Y91300D03*
X530450Y91300D03*
X567150Y109650D03*
X548800Y109650D03*
X530450Y109650D03*
D16*
X391370Y167460D03*
X391370Y184460D03*
D10*
X398000Y151800D03*
X398000Y134800D03*
D17*
X240650Y190800D03*
X227950Y190800D03*
X215250Y190800D03*
X202550Y190800D03*
X189850Y190800D03*
X177150Y190800D03*
X164450Y190800D03*
X151750Y190800D03*
X151750Y134800D03*
X164450Y134800D03*
X177150Y134800D03*
X189850Y134800D03*
X202550Y134800D03*
X215250Y134800D03*
X227950Y134800D03*
X240650Y134800D03*
D18*
X301700Y149800D03*
X301700Y130800D03*
X322700Y140300D03*
X301900Y196800D03*
X301900Y177800D03*
X322900Y187300D03*
D16*
X286400Y147800D03*
X286400Y130800D03*
X285700Y179200D03*
X285700Y196200D03*
D19*
X160800Y97100D03*
D20*
X188800Y102740D03*
X196800Y102740D03*
X204800Y102740D03*
X212800Y102740D03*
X220800Y102740D03*
D19*
X160800Y42100D03*
X248800Y97100D03*
X248800Y42100D03*
D21*
X317347Y105103D02*
X325253Y105103D01*
X325253Y93397D01*
X317347Y93397D01*
X317347Y105103D01*
X317347Y94722D02*
X325253Y94722D01*
X325253Y96047D02*
X317347Y96047D01*
X317347Y97372D02*
X325253Y97372D01*
X325253Y98697D02*
X317347Y98697D01*
X317347Y100022D02*
X325253Y100022D01*
X325253Y101347D02*
X317347Y101347D01*
X317347Y102672D02*
X325253Y102672D01*
X325253Y103997D02*
X317347Y103997D01*
X302353Y105103D02*
X294447Y105103D01*
X302353Y105103D02*
X302353Y93397D01*
X294447Y93397D01*
X294447Y105103D01*
X294447Y94722D02*
X302353Y94722D01*
X302353Y96047D02*
X294447Y96047D01*
X294447Y97372D02*
X302353Y97372D01*
X302353Y98697D02*
X294447Y98697D01*
X294447Y100022D02*
X302353Y100022D01*
X302353Y101347D02*
X294447Y101347D01*
X294447Y102672D02*
X302353Y102672D01*
X302353Y103997D02*
X294447Y103997D01*
X279453Y105103D02*
X271547Y105103D01*
X279453Y105103D02*
X279453Y93397D01*
X271547Y93397D01*
X271547Y105103D01*
X271547Y94722D02*
X279453Y94722D01*
X279453Y96047D02*
X271547Y96047D01*
X271547Y97372D02*
X279453Y97372D01*
X279453Y98697D02*
X271547Y98697D01*
X271547Y100022D02*
X279453Y100022D01*
X279453Y101347D02*
X271547Y101347D01*
X271547Y102672D02*
X279453Y102672D01*
X279453Y103997D02*
X271547Y103997D01*
D22*
X283182Y37918D02*
X313618Y37918D01*
X313618Y26782D01*
X283182Y26782D01*
X283182Y37918D01*
X283182Y28649D02*
X313618Y28649D01*
X313618Y30516D02*
X283182Y30516D01*
X283182Y32383D02*
X313618Y32383D01*
X313618Y34250D02*
X283182Y34250D01*
X283182Y36117D02*
X313618Y36117D01*
D23*
X90600Y136550D03*
X90600Y187050D03*
X358400Y41550D03*
X358400Y92050D03*
D24*
X355800Y120200D03*
X355800Y198200D03*
D25*
X781400Y154050D03*
X781400Y121550D03*
D26*
X782300Y184600D03*
X739300Y184600D03*
D23*
X827800Y66550D03*
X827800Y117050D03*
X827910Y194580D03*
X827910Y144080D03*
D11*
X128000Y272500D03*
X137000Y272500D03*
X145000Y272500D03*
X154000Y272500D03*
X154000Y289500D03*
X145000Y289500D03*
X137000Y289500D03*
X128000Y289500D03*
X247000Y274500D03*
X256000Y274500D03*
X264000Y274500D03*
X273000Y274500D03*
X273000Y291500D03*
X264000Y291500D03*
X256000Y291500D03*
X247000Y291500D03*
X738000Y269500D03*
X747000Y269500D03*
X755000Y269500D03*
X764000Y269500D03*
X764000Y286500D03*
X755000Y286500D03*
X747000Y286500D03*
X738000Y286500D03*
X813600Y281200D03*
X822600Y281200D03*
X830600Y281200D03*
X839600Y281200D03*
X839600Y298200D03*
X830600Y298200D03*
X822600Y298200D03*
X813600Y298200D03*
D27*
X101000Y252220D03*
X101000Y223780D03*
X128000Y252220D03*
X128000Y223780D03*
X156000Y252220D03*
X156000Y223780D03*
X181400Y252120D03*
X181400Y223680D03*
X212000Y252220D03*
X212000Y223780D03*
X241000Y252220D03*
X241000Y223780D03*
X271000Y252220D03*
X271000Y223780D03*
X302000Y252220D03*
X302000Y223780D03*
X725000Y252620D03*
X725000Y224180D03*
X747900Y252620D03*
X747900Y224180D03*
X771600Y252620D03*
X771600Y224180D03*
X795600Y252620D03*
X795600Y224180D03*
X823600Y252620D03*
X823600Y224180D03*
X851600Y252620D03*
X851600Y224180D03*
X879600Y252620D03*
X879600Y224180D03*
X905000Y252220D03*
X905000Y223780D03*
D10*
X426000Y134500D03*
X426000Y151500D03*
X426000Y120500D03*
X426000Y103500D03*
X648600Y66500D03*
X648600Y49500D03*
X647000Y81500D03*
X647000Y98500D03*
X104500Y529000D03*
X87500Y529000D03*
X104500Y413000D03*
X87500Y413000D03*
X216500Y529000D03*
X199500Y529000D03*
X215500Y409000D03*
X198500Y409000D03*
X324500Y530000D03*
X307500Y530000D03*
X323500Y407000D03*
X306500Y407000D03*
X427500Y530000D03*
X410500Y530000D03*
X427500Y404000D03*
X410500Y404000D03*
X620500Y531300D03*
X603500Y531300D03*
X622500Y407300D03*
X605500Y407300D03*
X732500Y527300D03*
X715500Y527300D03*
X735500Y394300D03*
X718500Y394300D03*
X853500Y529300D03*
X836500Y529300D03*
X851500Y384300D03*
X834500Y384300D03*
X966500Y529300D03*
X949500Y529300D03*
X969500Y402300D03*
X952500Y402300D03*
D16*
X356900Y323300D03*
X339900Y323300D03*
X356900Y302800D03*
X339900Y302800D03*
X331000Y153500D03*
X331000Y170500D03*
D10*
X456500Y215000D03*
X473500Y215000D03*
X682300Y204100D03*
X682300Y187100D03*
D24*
X657700Y144400D03*
X657700Y222400D03*
D16*
X265000Y196500D03*
X265000Y179500D03*
X265000Y165500D03*
X265000Y148500D03*
D10*
X377000Y151500D03*
X377000Y134500D03*
D28*
X410000Y192500D03*
X410000Y207500D03*
X666700Y125200D03*
X666700Y110200D03*
D16*
X668500Y98400D03*
X668500Y81400D03*
X427000Y208500D03*
X427000Y191500D03*
D29*
X735600Y132950D03*
X683600Y132950D03*
X735600Y120250D03*
X735600Y145650D03*
X735600Y158350D03*
X683600Y120250D03*
X683600Y145650D03*
X683600Y158350D03*
D10*
X794470Y102120D03*
X794470Y85120D03*
D16*
X730900Y104800D03*
X730900Y87800D03*
X751900Y87800D03*
X751900Y104800D03*
X709900Y104800D03*
X709900Y87800D03*
D10*
X688900Y87800D03*
X688900Y104800D03*
D30*
X396000Y92500D03*
X396000Y49500D03*
D10*
X131000Y152500D03*
X131000Y135500D03*
X131000Y167500D03*
X131000Y184500D03*
X389500Y219000D03*
X372500Y219000D03*
D31*
X372836Y269990D03*
X379186Y269990D03*
X385790Y269990D03*
X392140Y269990D03*
X398744Y269990D03*
X405348Y269990D03*
X411698Y269990D03*
X418302Y269990D03*
X424652Y269990D03*
X431256Y269990D03*
X437860Y269990D03*
X444210Y269990D03*
X450814Y269990D03*
X457164Y269990D03*
X457164Y328410D03*
X450814Y328410D03*
X444210Y328410D03*
X437860Y328410D03*
X431256Y328410D03*
X424652Y328410D03*
X418302Y328410D03*
X411698Y328410D03*
X405348Y328410D03*
X398744Y328410D03*
X392140Y328410D03*
X385790Y328410D03*
X379186Y328410D03*
X372836Y328410D03*
D10*
X655500Y292300D03*
X672500Y292300D03*
D32*
X959100Y256800D03*
X981100Y266300D03*
X981100Y247300D03*
D10*
X984700Y230400D03*
X967700Y230400D03*
D28*
X395000Y15000D03*
X410000Y15000D03*
D16*
X425900Y15700D03*
X425900Y32700D03*
D33*
X310100Y305400D03*
X310100Y337400D03*
D31*
X183042Y284790D03*
X189646Y284790D03*
X195996Y284790D03*
X202600Y284790D03*
X209204Y284790D03*
X215554Y284790D03*
X222158Y284790D03*
X222158Y343210D03*
X215554Y343210D03*
X209204Y343210D03*
X202600Y343210D03*
X195996Y343210D03*
X189646Y343210D03*
X183042Y343210D03*
X601842Y285790D03*
X608446Y285790D03*
X614796Y285790D03*
X621400Y285790D03*
X628004Y285790D03*
X634354Y285790D03*
X640958Y285790D03*
X640958Y344210D03*
X634354Y344210D03*
X628004Y344210D03*
X621400Y344210D03*
X614796Y344210D03*
X608446Y344210D03*
X601842Y344210D03*
X879542Y285390D03*
X886146Y285390D03*
X892496Y285390D03*
X899100Y285390D03*
X905704Y285390D03*
X912054Y285390D03*
X918658Y285390D03*
X918658Y343810D03*
X912054Y343810D03*
X905704Y343810D03*
X899100Y343810D03*
X892496Y343810D03*
X886146Y343810D03*
X879542Y343810D03*
D34*
X139198Y51892D03*
X129800Y51892D03*
X120402Y51892D03*
X120402Y27508D03*
X139198Y27508D03*
D16*
X138500Y71100D03*
X121500Y71100D03*
D28*
X944300Y224000D03*
X944300Y239000D03*
D10*
X984700Y209400D03*
X967700Y209400D03*
M02*
