M48
;GenerationSoftware,Autodesk,EAGLE,9.6.2*%
;CreationDate,2024-06-10T02:33:23Z*%
FMAT,2
ICI,OFF
METRIC,TZ,000.000
T7C0.200
T6C0.350
T5C1.000
T4C1.016
T3C1.050
T2C1.400
T1C1.700
%
G90
M71
T1
X14350Y33700
X2450Y33700
X10650Y33700
X6150Y33700
T2
X5050Y23150
X95790Y15390
X95790Y10390
X5050Y28150
T3
X10160Y67020
X12700Y67020
X15240Y67020
X17780Y67020
X20320Y67020
X22860Y67020
X30480Y67020
X25400Y67020
X27940Y67020
X90170Y67030
X87630Y67030
X85090Y67030
X82550Y67030
X80010Y67030
X77470Y67030
X74930Y67030
X72390Y67030
X69850Y67030
X67310Y67030
X64770Y67030
X62230Y67030
X59690Y67030
X57150Y67030
X54610Y67030
X52070Y67030
X48260Y67020
X45720Y67020
X43180Y67020
X40640Y67020
X38100Y67020
X35560Y67020
X33020Y67020
T4
X96520Y29980
X92110Y19910
X94650Y19910
X66840Y54670
X9410Y55110
X9410Y57650
X9410Y60190
X9300Y43210
X9300Y45750
X9300Y48290
X20510Y55110
X20510Y57650
X20510Y60190
X20600Y43110
X20600Y45650
X20600Y48190
X31410Y54940
X31410Y57480
X31410Y60020
X31400Y42740
X31400Y45280
X31400Y47820
X41910Y57380
X41910Y59920
X41800Y42640
X41800Y45180
X41800Y47720
X61310Y55370
X61310Y57910
X61310Y60450
X61300Y42870
X61300Y45410
X61300Y47950
X72610Y55070
X72610Y57610
X72610Y60150
X72600Y42670
X72600Y45210
X72600Y47750
X84210Y54970
X84210Y57510
X84210Y60050
X41910Y54840
X84200Y42370
X84200Y44910
X84200Y47450
X95710Y54870
X95710Y57410
X95710Y59950
X95800Y42770
X95800Y45310
X95800Y47850
X3520Y12680
X3520Y15220
X3520Y17760
X3520Y10140
X87150Y11970
X87150Y14510
X87150Y17050
X87150Y9430
X4040Y49860
X4040Y52400
X4040Y54940
X4040Y38760
X4040Y41300
X4040Y43840
X15240Y49660
X15240Y52200
X15240Y54740
X15140Y38760
X15140Y41300
X15140Y43840
X26040Y49760
X26040Y52300
X26040Y54840
X26040Y38860
X26040Y41400
X26040Y43940
X36540Y49560
X36540Y52100
X36540Y54640
X36540Y38660
X36540Y41200
X36540Y43740
X56840Y48160
X56840Y50700
X56840Y53240
X56840Y37260
X56840Y39800
X56840Y42340
X66840Y49590
X66840Y52130
X66840Y38690
X66840Y41230
X66840Y43770
X78440Y49590
X78440Y52130
X78440Y54670
X78440Y38790
X78440Y41330
X78440Y43870
X89950Y51150
X89950Y53690
X89950Y56230
X90000Y40210
X90000Y42750
X90000Y45290
X47190Y58570
X52270Y58570
X46700Y48170
X51780Y48170
X46500Y37870
X51580Y37870
X73610Y2800
X71070Y2800
X68530Y2800
X65990Y2800
X76580Y2800
X79120Y2800
X81660Y2800
X84200Y2800
X86740Y2800
X89280Y2800
X91820Y2800
X96520Y32520
T5
X22680Y7210
X18280Y7210
T6
X22900Y10300
X24000Y20300
X43700Y1600
X64300Y1600
X33800Y9205
X10100Y21000
X59500Y22000
X59600Y17500
X41106Y9788
X64200Y10990
X30600Y37400
X60500Y37330
X70900Y36330
X83482Y49730
X93700Y51130
X94000Y38130
X70300Y50730
X39930Y38310
X41000Y49400
X30700Y49600
X18700Y38800
X18500Y50600
X8700Y37900
X8756Y49644
X59200Y50730
X71246Y38349
X44400Y21400
X66500Y18900
X77890Y8430
X68380Y16740
X58500Y16200
X58600Y13900
X65780Y16090
X14000Y12300
X73600Y16860
X80921Y11560
X82607Y37473
X38540Y1530
X36640Y14990
X40920Y12950
X21810Y27050
X70650Y22150
X32550Y32220
X12210Y8320
X29450Y35170
X32380Y29220
X96980Y27670
X92790Y28400
X64070Y29860
X44720Y25690
X16030Y30020
X14565Y30025
X22240Y35620
X20510Y37329
X19571Y33050
X25590Y30920
X26400Y30340
X41220Y30660
X61560Y29846
X41770Y34150
X73674Y29800
X61100Y49830
X64860Y35110
X59707Y36837
X72810Y30350
X74220Y35680
X76440Y29810
X82000Y40043
X81340Y31660
X89860Y27270
X83457Y34843
X82610Y30970
X94080Y36100
X91970Y35860
X75280Y35780
X75491Y29760
X43560Y29080
X45096Y28526
X41688Y9000
X43400Y4300
X43800Y7900
X35091Y26372
X38200Y20400
X64200Y21500
X65709Y11092
X70000Y5484
X68400Y7699
X36901Y30460
X62100Y20200
X37680Y29970
X39707Y20307
X65259Y12200
X69906Y7995
X41460Y2490
X47020Y4180
X70909Y5464
X36000Y26384
X48800Y22800
X47000Y16900
X41791Y21974
X40740Y31510
X38080Y23285
X49600Y25200
X52400Y25300
X55012Y25200
X57900Y25200
X60700Y25200
X63400Y25100
X36962Y20462
X75800Y6900
X35830Y33410
X69001Y5464
X59175Y34535
X18580Y35690
X67190Y33990
X48300Y11100
X33300Y18400
X47000Y5500
X26400Y13800
X47200Y7100
X28000Y16700
X43200Y17700
X36000Y14100
X48921Y20671
X13800Y10500
X63700Y49930
X80900Y46230
X42300Y16300
X90530Y29830
X86280Y32977
X88359Y30039
X85371Y33282
X84390Y33690
X87451Y29970
X18580Y32870
X21150Y31250
X22090Y32630
X41670Y28780
X46120Y34460
X62440Y32670
X58910Y32610
X62790Y29860
X89350Y20950
X63980Y12550
X66600Y20400
X69980Y13826
X40400Y34108
X68560Y28540
X71110Y26970
X47000Y11000
X73987Y6166
X47200Y10091
X79217Y6115
X48200Y17500
X41986Y17985
X26411Y9900
X47100Y14300
X47000Y15400
T7
X54880Y10048
X53045Y10048
X55797Y7295
X53962Y7295
X56715Y8213
X54880Y8213
X53045Y8213
X55797Y9130
X55797Y10965
X53962Y10965
X53962Y9130
X56715Y10048
M30